# xmcd CD database file
#
# Track frame offsets:
#	150
#	19730
#	31484
#	48421
#	65418
#	82332
#	97810
#	114086
#	129571
#	142474
#	164271
#	180209
#	192428
#	212097
#	226349
#	238777
#	254109
#	267129
#	290482
#	304057
#
# Disc length: 4267 seconds
#
# Revision: 0
# Processed by: cddbd v1.5.2PL0 Copyright (c) Steve Scherf et al.
# Submitted via: CDex 1.78
#
DISCID=2410a914
DTITLE=Various Artist - TSP Country and Americana Vol 147
DYEAR=2015
DGENRE=Country
TTITLE0=Matthew Huff - A Little Bit Of Crown
TTITLE1=David MacLachlan - This Fair Land
TTITLE2=Bretten Low - She's With Me
TTITLE3=Austin Belle - Back Where We Belong
TTITLE4=Jason Lee McKinney Band - Barstool Fellowship
TTITLE5=Chris Cox - Honky Tonk Hellcat
TTITLE6=Kristyn Harris - Diesel and Dust
TTITLE7=Jeff Keith Band - Sorrow's Creek
TTITLE8=Chris Andres - Wooden Overcoat
TTITLE9=Blaise James Turbett - Count On Me
TTITLE10=Dick Barnes - I've Done My Best
TTITLE11=Ken Lawson - Way Out Here
TTITLE12=Kristyn Harris - Acres Of Nowhere
TTITLE13=Dick Barnes - Born That Way
TTITLE14=Mike Runnels - Sabrina
TTITLE15=Jim Agecoutay - The Devil Has Green Eyes
TTITLE16=Trent Agecoutay - Tell Me Everything's Alright
TTITLE17=The Pig Farmer Band - I Believe In Miracles
TTITLE18=Luke Tapper - God First
TTITLE19=Jeff Keith Band - Hold On
EXTD=YEAR: 2015
EXTT0=
EXTT1=
EXTT2=
EXTT3=
EXTT4=
EXTT5=
EXTT6=
EXTT7=
EXTT8=
EXTT9=
EXTT10=
EXTT11=
EXTT12=
EXTT13=
EXTT14=
EXTT15=
EXTT16=
EXTT17=
EXTT18=
EXTT19=
PLAYORDER=
